<svg xmlns="http://www.w3.org/2000/svg" width="17" height="16" viewBox="0 0 17 16" fill="none">
  <g clip-path="url(#clip0_540_662)">
    <path fill-rule="evenodd" clip-rule="evenodd" d="M0.5 2C0.5 1.46957 0.710714 0.960859 1.08579 0.585786C1.46086 0.210714 1.96957 0 2.5 0L14.5 0C15.0304 0 15.5391 0.210714 15.9142 0.585786C16.2893 0.960859 16.5 1.46957 16.5 2V14C16.5 14.5304 16.2893 15.0391 15.9142 15.4142C15.5391 15.7893 15.0304 16 14.5 16H2.5C1.96957 16 1.46086 15.7893 1.08579 15.4142C0.710714 15.0391 0.5 14.5304 0.5 14V2ZM15.5 4H11.5V7H15.5V4ZM15.5 8H11.5V11H15.5V8ZM15.5 12H11.5V15H14.5C14.7652 15 15.0196 14.8946 15.2071 14.7071C15.3946 14.5196 15.5 14.2652 15.5 14V12ZM10.5 15V12H6.5V15H10.5ZM5.5 15V12H1.5V14C1.5 14.2652 1.60536 14.5196 1.79289 14.7071C1.98043 14.8946 2.23478 15 2.5 15H5.5ZM1.5 11H5.5V8H1.5V11ZM1.5 7H5.5V4H1.5V7ZM6.5 4V7H10.5V4H6.5ZM10.5 8H6.5V11H10.5V8Z" fill="black" fill-opacity="0.8"/>
  </g>
  <defs>
    <clipPath id="clip0_540_662">
      <rect width="16" height="16" fill="white" transform="translate(0.5)"/>
    </clipPath>
  </defs>
</svg>