<svg width="25" height="24" viewBox="0 0 25 24" fill="none" xmlns="http://www.w3.org/2000/svg">
<g id="Frame">
<path id="Vector (Stroke)" fill-rule="evenodd" clip-rule="evenodd" d="M3.75 7C3.75 6.58579 4.08579 6.25 4.5 6.25H20.5C20.9142 6.25 21.25 6.58579 21.25 7C21.25 7.41421 20.9142 7.75 20.5 7.75H4.5C4.08579 7.75 3.75 7.41421 3.75 7Z" fill="#3D3D3D"/>
<path id="Vector (Stroke)_2" fill-rule="evenodd" clip-rule="evenodd" d="M10.5 10.25C10.9142 10.25 11.25 10.5858 11.25 11V17C11.25 17.4142 10.9142 17.75 10.5 17.75C10.0858 17.75 9.75 17.4142 9.75 17V11C9.75 10.5858 10.0858 10.25 10.5 10.25Z" fill="#3D3D3D"/>
<path id="Vector (Stroke)_3" fill-rule="evenodd" clip-rule="evenodd" d="M14.5 10.25C14.9142 10.25 15.25 10.5858 15.25 11V17C15.25 17.4142 14.9142 17.75 14.5 17.75C14.0858 17.75 13.75 17.4142 13.75 17V11C13.75 10.5858 14.0858 10.25 14.5 10.25Z" fill="#3D3D3D"/>
<path id="Vector (Stroke)_4" fill-rule="evenodd" clip-rule="evenodd" d="M5.43772 6.25259C5.8505 6.21819 6.21301 6.52493 6.24741 6.93771L7.24741 18.9377C7.24914 18.9584 7.25 18.9792 7.25 19C7.25 19.3315 7.3817 19.6495 7.61612 19.8839C7.85054 20.1183 8.16848 20.25 8.5 20.25H16.5C16.8315 20.25 17.1495 20.1183 17.3839 19.8839C17.6183 19.6495 17.75 19.3315 17.75 19C17.75 18.9792 17.7509 18.9584 17.7526 18.9377L18.7526 6.93771C18.787 6.52493 19.1495 6.21819 19.5623 6.25259C19.9751 6.28699 20.2818 6.6495 20.2474 7.06228L19.2498 19.0337C19.241 19.7508 18.9523 20.4368 18.4445 20.9445C17.9288 21.4603 17.2294 21.75 16.5 21.75H8.5C7.77066 21.75 7.07118 21.4603 6.55546 20.9445C6.04768 20.4368 5.75898 19.7508 5.75021 19.0337L4.75259 7.06228C4.7182 6.6495 5.02494 6.28699 5.43772 6.25259Z" fill="#3D3D3D"/>
<path id="Vector (Stroke)_5" fill-rule="evenodd" clip-rule="evenodd" d="M10.5 3.75C10.4337 3.75 10.3701 3.77634 10.3232 3.82322C10.2763 3.87011 10.25 3.9337 10.25 4V7C10.25 7.41421 9.91421 7.75 9.5 7.75C9.08579 7.75 8.75 7.41421 8.75 7V4C8.75 3.53587 8.93437 3.09075 9.26256 2.76256C9.59075 2.43437 10.0359 2.25 10.5 2.25H14.5C14.9641 2.25 15.4092 2.43437 15.7374 2.76256C16.0656 3.09075 16.25 3.53587 16.25 4V7C16.25 7.41421 15.9142 7.75 15.5 7.75C15.0858 7.75 14.75 7.41421 14.75 7V4C14.75 3.9337 14.7237 3.87011 14.6768 3.82322C14.6299 3.77634 14.5663 3.75 14.5 3.75H10.5Z" fill="#3D3D3D"/>
</g>
</svg>
