<svg width="25" height="24" viewBox="0 0 25 24" fill="none" xmlns="http://www.w3.org/2000/svg">
<g id="Frame">
<path id="Vector (Stroke)" fill-rule="evenodd" clip-rule="evenodd" d="M15.6306 4.19396C16.0648 4.01413 16.5301 3.92157 17 3.92157C17.4699 3.92157 17.9353 4.01413 18.3694 4.19396C18.8036 4.37379 19.198 4.63738 19.5303 4.96967C19.8626 5.30195 20.1262 5.69644 20.306 6.13059C20.4859 6.56475 20.5784 7.03007 20.5784 7.5C20.5784 7.96992 20.4859 8.43524 20.306 8.8694C20.1262 9.30356 19.8626 9.69804 19.5303 10.0303L9.03033 20.5303C8.88968 20.671 8.69891 20.75 8.5 20.75H4.5C4.08579 20.75 3.75 20.4142 3.75 20V16C3.75 15.8011 3.82902 15.6103 3.96967 15.4697L14.4697 4.96967C14.802 4.63738 15.1964 4.37379 15.6306 4.19396ZM17 5.42157C16.7271 5.42157 16.4568 5.47533 16.2046 5.57978C15.9525 5.68423 15.7233 5.83733 15.5303 6.03033L5.25 16.3107V19.25H8.18934L18.4697 8.96967C18.6627 8.77667 18.8158 8.54754 18.9202 8.29538C19.0247 8.04321 19.0784 7.77294 19.0784 7.5C19.0784 7.22705 19.0247 6.95678 18.9202 6.70462C18.8158 6.45245 18.6627 6.22333 18.4697 6.03033C18.2767 5.83733 18.0475 5.68423 17.7954 5.57978C17.5432 5.47533 17.2729 5.42157 17 5.42157Z" fill="#3D3D3D"/>
<path id="Vector (Stroke)_2" fill-rule="evenodd" clip-rule="evenodd" d="M13.4697 5.96967C13.7626 5.67678 14.2374 5.67678 14.5303 5.96967L18.5303 9.96967C18.8232 10.2626 18.8232 10.7374 18.5303 11.0303C18.2374 11.3232 17.7626 11.3232 17.4697 11.0303L13.4697 7.03033C13.1768 6.73744 13.1768 6.26256 13.4697 5.96967Z" fill="#3D3D3D"/>
</g>
</svg>
