<svg xmlns="http://www.w3.org/2000/svg" width="25" height="25" viewBox="0 0 25 25" fill="none">
<g clip-path="url(#clip0_727_41)">
<path fill-rule="evenodd" clip-rule="evenodd" d="M10.1562 18.75C11.2848 18.75 12.4023 18.5277 13.4449 18.0958C14.4876 17.664 15.4349 17.031 16.233 16.233C17.031 15.4349 17.664 14.4876 18.0958 13.4449C18.5277 12.4023 18.75 11.2848 18.75 10.1562C18.75 9.0277 18.5277 7.91021 18.0958 6.86756C17.664 5.82492 17.031 4.87755 16.233 4.07955C15.4349 3.28155 14.4876 2.64854 13.4449 2.21666C12.4023 1.78478 11.2848 1.5625 10.1562 1.5625C7.87705 1.5625 5.69119 2.46791 4.07955 4.07955C2.46791 5.69119 1.5625 7.87705 1.5625 10.1562C1.5625 12.4355 2.46791 14.6213 4.07955 16.233C5.69119 17.8446 7.87705 18.75 10.1562 18.75ZM20.3125 10.1562C20.3125 12.8499 19.2425 15.4331 17.3378 17.3378C15.4331 19.2425 12.8499 20.3125 10.1562 20.3125C7.46265 20.3125 4.87936 19.2425 2.9747 17.3378C1.07003 15.4331 0 12.8499 0 10.1562C0 7.46265 1.07003 4.87936 2.9747 2.9747C4.87936 1.07003 7.46265 0 10.1562 0C12.8499 0 15.4331 1.07003 17.3378 2.9747C19.2425 4.87936 20.3125 7.46265 20.3125 10.1562Z" fill="black"/>
<path d="M16.1621 18.3465C16.209 18.409 16.259 18.4684 16.3152 18.5262L22.3309 24.5418C22.6238 24.835 23.0213 24.9998 23.4358 25C23.8503 25.0001 24.2478 24.8356 24.541 24.5426C24.8342 24.2496 24.999 23.8522 24.9991 23.4377C24.9993 23.0232 24.8348 22.6256 24.5418 22.3325L18.5262 16.3168C18.4703 16.2603 18.4102 16.2081 18.3465 16.1606C17.7335 16.9963 16.997 17.7339 16.1621 18.3481V18.3465Z" fill="black"/>
</g>
<defs>
<clipPath id="clip0_727_41">
<rect width="25" height="25" fill="white"/>
</clipPath>
</defs>
</svg>